<mxfile host="app.diagrams.net" agent="Mozilla/5.0 (Windows NT 10.0; Win64; x64) AppleWebKit/537.36 (KHTML, like Gecko) Chrome/131.0.0.0 Safari/537.36" version="25.0.3">
  <diagram name="Página-1" id="72w8gyONWri6qv1IQKfh">
    <mxGraphModel dx="3783" dy="2520" grid="1" gridSize="10" guides="1" tooltips="1" connect="1" arrows="1" fold="1" page="1" pageScale="1" pageWidth="850" pageHeight="1100" math="0" shadow="0">
      <root>
        <mxCell id="0" />
        <mxCell id="1" parent="0" />
        <mxCell id="Dz6mXpDx_hXOHsCZPw8R-20" value="" style="group" parent="1" vertex="1" connectable="0">
          <mxGeometry x="-500" y="-710" width="1050" height="330" as="geometry" />
        </mxCell>
        <mxCell id="Dz6mXpDx_hXOHsCZPw8R-21" value="" style="rounded=0;whiteSpace=wrap;html=1;fillColor=none;dashed=1;dashPattern=8 8;" parent="Dz6mXpDx_hXOHsCZPw8R-20" vertex="1">
          <mxGeometry width="1050" height="330" as="geometry" />
        </mxCell>
        <mxCell id="Dz6mXpDx_hXOHsCZPw8R-22" value="&lt;b&gt;Gestão de Casos&lt;/b&gt;&lt;div&gt;&lt;font style=&quot;font-size: 11px;&quot;&gt;[Container]&lt;/font&gt;&lt;/div&gt;" style="text;html=1;align=left;verticalAlign=middle;whiteSpace=wrap;rounded=0;" parent="Dz6mXpDx_hXOHsCZPw8R-20" vertex="1">
          <mxGeometry x="2.619387027797576" y="280" width="31.432644333570924" height="40" as="geometry" />
        </mxCell>
        <object placeholders="1" c4Name="Case Repository" c4Type="Component" c4Technology="Spring Data / JPA" c4Description="Acessa as informações necessárias no&#xa;banco de dados" label="&lt;font style=&quot;font-size: 16px&quot;&gt;&lt;b&gt;%c4Name%&lt;/b&gt;&lt;/font&gt;&lt;div&gt;[%c4Type%: %c4Technology%]&lt;/div&gt;&lt;br&gt;&lt;div&gt;&lt;font style=&quot;font-size: 11px&quot;&gt;%c4Description%&lt;/font&gt;&lt;/div&gt;" id="k0iF4_KkrRQ9H8Pkwpsn-3">
          <mxCell style="rounded=1;whiteSpace=wrap;html=1;labelBackgroundColor=none;fillColor=#63BEF2;fontColor=#ffffff;align=center;arcSize=6;strokeColor=#2086C9;metaEdit=1;resizable=0;points=[[0.25,0,0],[0.5,0,0],[0.75,0,0],[1,0.25,0],[1,0.5,0],[1,0.75,0],[0.75,1,0],[0.5,1,0],[0.25,1,0],[0,0.75,0],[0,0.5,0],[0,0.25,0]];dashed=1;dashPattern=8 8;" vertex="1" parent="Dz6mXpDx_hXOHsCZPw8R-20">
            <mxGeometry x="722.8260869565219" y="110" width="240" height="120" as="geometry" />
          </mxCell>
        </object>
        <object placeholders="1" c4Name="Case Service" c4Type="Component" c4Technology="Spring Bean" c4Description="Permite que os administradores acessem dados &#xa;pessoas e preferências dos usuários" label="&lt;font style=&quot;font-size: 16px&quot;&gt;&lt;b&gt;%c4Name%&lt;/b&gt;&lt;/font&gt;&lt;div&gt;[%c4Type%: %c4Technology%]&lt;/div&gt;&lt;br&gt;&lt;div&gt;&lt;font style=&quot;font-size: 11px&quot;&gt;%c4Description%&lt;/font&gt;&lt;/div&gt;" id="k0iF4_KkrRQ9H8Pkwpsn-2">
          <mxCell style="rounded=1;whiteSpace=wrap;html=1;labelBackgroundColor=none;fillColor=#63BEF2;fontColor=#ffffff;align=center;arcSize=6;strokeColor=#2086C9;metaEdit=1;resizable=0;points=[[0.25,0,0],[0.5,0,0],[0.75,0,0],[1,0.25,0],[1,0.5,0],[1,0.75,0],[0.75,1,0],[0.5,1,0],[0.25,1,0],[0,0.75,0],[0,0.5,0],[0,0.25,0]];" vertex="1" parent="Dz6mXpDx_hXOHsCZPw8R-20">
            <mxGeometry x="403.26086956521743" y="110" width="240" height="120" as="geometry" />
          </mxCell>
        </object>
        <object placeholders="1" c4Name="Case Controller" c4Type="Component" c4Technology="Spring MVC Rest Controller" c4Description="Permite que os administradores acessem dados &#xa;pessoas e preferências dos usuários" label="&lt;font style=&quot;font-size: 16px&quot;&gt;&lt;b&gt;%c4Name%&lt;/b&gt;&lt;/font&gt;&lt;div&gt;[%c4Type%: %c4Technology%]&lt;/div&gt;&lt;br&gt;&lt;div&gt;&lt;font style=&quot;font-size: 11px&quot;&gt;%c4Description%&lt;/font&gt;&lt;/div&gt;" id="k0iF4_KkrRQ9H8Pkwpsn-1">
          <mxCell style="rounded=1;whiteSpace=wrap;html=1;labelBackgroundColor=none;fillColor=#63BEF2;fontColor=#ffffff;align=center;arcSize=6;strokeColor=#2086C9;metaEdit=1;resizable=0;points=[[0.25,0,0],[0.5,0,0],[0.75,0,0],[1,0.25,0],[1,0.5,0],[1,0.75,0],[0.75,1,0],[0.5,1,0],[0.25,1,0],[0,0.75,0],[0,0.5,0],[0,0.25,0]];" vertex="1" parent="Dz6mXpDx_hXOHsCZPw8R-20">
            <mxGeometry x="83.69565217391303" y="110" width="240" height="120" as="geometry" />
          </mxCell>
        </object>
        <mxCell id="k0iF4_KkrRQ9H8Pkwpsn-4" style="edgeStyle=orthogonalEdgeStyle;rounded=0;orthogonalLoop=1;jettySize=auto;html=1;entryX=0;entryY=0.5;entryDx=0;entryDy=0;entryPerimeter=0;dashed=1;dashPattern=8 8;" edge="1" parent="Dz6mXpDx_hXOHsCZPw8R-20" source="k0iF4_KkrRQ9H8Pkwpsn-1" target="k0iF4_KkrRQ9H8Pkwpsn-2">
          <mxGeometry relative="1" as="geometry" />
        </mxCell>
        <mxCell id="k0iF4_KkrRQ9H8Pkwpsn-5" value="Utiliza" style="edgeLabel;html=1;align=center;verticalAlign=middle;resizable=0;points=[];" vertex="1" connectable="0" parent="k0iF4_KkrRQ9H8Pkwpsn-4">
          <mxGeometry x="-0.1144" y="-2" relative="1" as="geometry">
            <mxPoint y="-2" as="offset" />
          </mxGeometry>
        </mxCell>
        <mxCell id="k0iF4_KkrRQ9H8Pkwpsn-6" style="edgeStyle=orthogonalEdgeStyle;rounded=0;orthogonalLoop=1;jettySize=auto;html=1;exitX=1;exitY=0.5;exitDx=0;exitDy=0;exitPerimeter=0;entryX=0;entryY=0.5;entryDx=0;entryDy=0;entryPerimeter=0;dashed=1;dashPattern=8 8;" edge="1" parent="Dz6mXpDx_hXOHsCZPw8R-20" source="k0iF4_KkrRQ9H8Pkwpsn-2" target="k0iF4_KkrRQ9H8Pkwpsn-3">
          <mxGeometry relative="1" as="geometry" />
        </mxCell>
        <mxCell id="k0iF4_KkrRQ9H8Pkwpsn-7" value="Utiliza" style="edgeLabel;html=1;align=center;verticalAlign=middle;resizable=0;points=[];" vertex="1" connectable="0" parent="k0iF4_KkrRQ9H8Pkwpsn-6">
          <mxGeometry x="0.168" y="-1" relative="1" as="geometry">
            <mxPoint x="-23" y="-1" as="offset" />
          </mxGeometry>
        </mxCell>
        <mxCell id="Dz6mXpDx_hXOHsCZPw8R-1" style="edgeStyle=orthogonalEdgeStyle;rounded=0;orthogonalLoop=1;jettySize=auto;html=1;dashed=1;dashPattern=8 8;entryX=0;entryY=0.5;entryDx=0;entryDy=0;entryPerimeter=0;exitX=0.5;exitY=1;exitDx=0;exitDy=0;exitPerimeter=0;" parent="1" source="Dz6mXpDx_hXOHsCZPw8R-3" target="k0iF4_KkrRQ9H8Pkwpsn-1" edge="1">
          <mxGeometry relative="1" as="geometry">
            <mxPoint x="-440" y="-535" as="targetPoint" />
          </mxGeometry>
        </mxCell>
        <mxCell id="Dz6mXpDx_hXOHsCZPw8R-2" value="HTTP" style="edgeLabel;html=1;align=center;verticalAlign=middle;resizable=0;points=[];" parent="Dz6mXpDx_hXOHsCZPw8R-1" vertex="1" connectable="0">
          <mxGeometry x="-0.0375" y="2" relative="1" as="geometry">
            <mxPoint x="-2" y="-56" as="offset" />
          </mxGeometry>
        </mxCell>
        <object placeholders="1" c4Name="API GATEWAY" c4Type="Container" c4Technology="Kong Gateway " c4Description="Roteia as requisições dos usuários para os microserviços apropriados, centraliza a autenticação e autorização de acesso" label="&lt;font style=&quot;font-size: 16px&quot;&gt;&lt;b&gt;%c4Name%&lt;/b&gt;&lt;/font&gt;&lt;div&gt;[%c4Type%: %c4Technology%]&lt;/div&gt;&lt;br&gt;&lt;div&gt;&lt;font style=&quot;font-size: 11px&quot;&gt;&lt;font color=&quot;#E6E6E6&quot;&gt;%c4Description%&lt;/font&gt;&lt;/div&gt;" id="Dz6mXpDx_hXOHsCZPw8R-3">
          <mxCell style="rounded=1;whiteSpace=wrap;html=1;fontSize=11;labelBackgroundColor=none;fillColor=#23A2D9;fontColor=#ffffff;align=center;arcSize=10;strokeColor=#0E7DAD;metaEdit=1;resizable=0;points=[[0.25,0,0],[0.5,0,0],[0.75,0,0],[1,0.25,0],[1,0.5,0],[1,0.75,0],[0.75,1,0],[0.5,1,0],[0.25,1,0],[0,0.75,0],[0,0.5,0],[0,0.25,0]];" parent="1" vertex="1">
            <mxGeometry x="-700" y="-1070" width="240" height="120" as="geometry" />
          </mxCell>
        </object>
        <mxCell id="Dz6mXpDx_hXOHsCZPw8R-7" style="edgeStyle=orthogonalEdgeStyle;rounded=0;orthogonalLoop=1;jettySize=auto;html=1;startArrow=classic;startFill=1;dashed=1;dashPattern=8 8;exitX=0.535;exitY=1;exitDx=0;exitDy=0;exitPerimeter=0;" parent="1" source="k0iF4_KkrRQ9H8Pkwpsn-2" target="Dz6mXpDx_hXOHsCZPw8R-16" edge="1">
          <mxGeometry relative="1" as="geometry">
            <mxPoint x="165" y="-430" as="sourcePoint" />
          </mxGeometry>
        </mxCell>
        <mxCell id="Dz6mXpDx_hXOHsCZPw8R-8" value="Utiliza o Container&amp;nbsp;&lt;div&gt;de Autenticação para&lt;/div&gt;&lt;div&gt;validar acessos&lt;/div&gt;" style="edgeLabel;html=1;align=center;verticalAlign=middle;resizable=0;points=[];" parent="Dz6mXpDx_hXOHsCZPw8R-7" vertex="1" connectable="0">
          <mxGeometry x="-0.0688" y="-1" relative="1" as="geometry">
            <mxPoint x="1" as="offset" />
          </mxGeometry>
        </mxCell>
        <mxCell id="Dz6mXpDx_hXOHsCZPw8R-24" style="edgeStyle=orthogonalEdgeStyle;rounded=0;orthogonalLoop=1;jettySize=auto;html=1;dashed=1;dashPattern=8 8;exitX=0.5;exitY=0;exitDx=0;exitDy=0;exitPerimeter=0;" parent="1" source="k0iF4_KkrRQ9H8Pkwpsn-2" target="Dz6mXpDx_hXOHsCZPw8R-23" edge="1">
          <mxGeometry relative="1" as="geometry">
            <mxPoint x="165" y="-640" as="sourcePoint" />
          </mxGeometry>
        </mxCell>
        <mxCell id="Dz6mXpDx_hXOHsCZPw8R-26" value="HTTPS" style="edgeLabel;html=1;align=center;verticalAlign=middle;resizable=0;points=[];" parent="Dz6mXpDx_hXOHsCZPw8R-24" vertex="1" connectable="0">
          <mxGeometry x="0.0079" y="-2" relative="1" as="geometry">
            <mxPoint as="offset" />
          </mxGeometry>
        </mxCell>
        <mxCell id="Dz6mXpDx_hXOHsCZPw8R-12" style="edgeStyle=orthogonalEdgeStyle;rounded=0;orthogonalLoop=1;jettySize=auto;html=1;dashed=1;dashPattern=8 8;exitX=1;exitY=0.5;exitDx=0;exitDy=0;exitPerimeter=0;" parent="1" source="k0iF4_KkrRQ9H8Pkwpsn-3" target="Dz6mXpDx_hXOHsCZPw8R-15" edge="1">
          <mxGeometry relative="1" as="geometry">
            <mxPoint x="770" y="-535" as="sourcePoint" />
          </mxGeometry>
        </mxCell>
        <mxCell id="Dz6mXpDx_hXOHsCZPw8R-13" value="Lê e escreve em" style="edgeLabel;html=1;align=center;verticalAlign=middle;resizable=0;points=[];" parent="Dz6mXpDx_hXOHsCZPw8R-12" vertex="1" connectable="0">
          <mxGeometry y="2" relative="1" as="geometry">
            <mxPoint x="-2" y="117" as="offset" />
          </mxGeometry>
        </mxCell>
        <object placeholders="1" c4Name="Banco de dados" c4Type="Container" c4Technology="PostgreSQL" c4Description="" label="&lt;font style=&quot;font-size: 16px&quot;&gt;&lt;b&gt;%c4Name%&lt;/b&gt;&lt;/font&gt;&lt;div&gt;[%c4Type%:&amp;nbsp;%c4Technology%]&lt;/div&gt;&lt;br&gt;&lt;div&gt;&lt;font style=&quot;font-size: 11px&quot;&gt;&lt;font color=&quot;#E6E6E6&quot;&gt;%c4Description%&lt;/font&gt;&lt;/div&gt;" id="Dz6mXpDx_hXOHsCZPw8R-15">
          <mxCell style="shape=cylinder3;size=15;whiteSpace=wrap;html=1;boundedLbl=1;rounded=0;labelBackgroundColor=none;fillColor=#23A2D9;fontSize=12;fontColor=#ffffff;align=center;strokeColor=#0E7DAD;metaEdit=1;points=[[0.5,0,0],[1,0.25,0],[1,0.5,0],[1,0.75,0],[0.5,1,0],[0,0.75,0],[0,0.5,0],[0,0.25,0]];resizable=0;" parent="1" vertex="1">
            <mxGeometry x="510" y="-240" width="240" height="120" as="geometry" />
          </mxCell>
        </object>
        <object placeholders="1" c4Name="Autenticação" c4Type="Container" c4Technology="Java Spring Boot " c4Description="Microsserviço responsável por gerenciar a autenticação dos usuários e garantir que apenas usuários válidos possam reportar casos ou acessar&#xa;informações sensíveis." label="&lt;font style=&quot;font-size: 16px&quot;&gt;&lt;b&gt;%c4Name%&lt;/b&gt;&lt;/font&gt;&lt;div&gt;[%c4Type%:&amp;nbsp;%c4Technology%]&lt;/div&gt;&lt;br&gt;&lt;div&gt;&lt;font style=&quot;font-size: 11px&quot;&gt;&lt;font color=&quot;#E6E6E6&quot;&gt;%c4Description%&lt;/font&gt;&lt;/div&gt;" id="Dz6mXpDx_hXOHsCZPw8R-16">
          <mxCell style="shape=hexagon;size=50;perimeter=hexagonPerimeter2;whiteSpace=wrap;html=1;fixedSize=1;rounded=1;labelBackgroundColor=none;fillColor=#23A2D9;fontSize=12;fontColor=#ffffff;align=center;strokeColor=#0E7DAD;metaEdit=1;points=[[0.5,0,0],[1,0.25,0],[1,0.5,0],[1,0.75,0],[0.5,1,0],[0,0.75,0],[0,0.5,0],[0,0.25,0]];resizable=1;movable=1;rotatable=1;deletable=1;editable=1;locked=0;connectable=1;" parent="1" vertex="1">
            <mxGeometry x="-270" y="-240" width="290" height="210" as="geometry" />
          </mxCell>
        </object>
        <object placeholders="1" c4Name="API Google Maps" c4Type="API externa" c4Description="Utilizada para mapear as coordenadas dos casos de dengue, identificar áreas de risco e fornecer funcionalidades de localização no aplicativo mobile" label="&lt;font style=&quot;font-size: 16px&quot;&gt;&lt;b&gt;%c4Name%&lt;/b&gt;&lt;/font&gt;&lt;div&gt;[%c4Type%]&lt;/div&gt;&lt;br&gt;&lt;div&gt;&lt;font style=&quot;font-size: 11px&quot;&gt;&lt;font color=&quot;#cccccc&quot;&gt;%c4Description%&lt;/font&gt;&lt;/div&gt;" id="Dz6mXpDx_hXOHsCZPw8R-23">
          <mxCell style="rounded=1;whiteSpace=wrap;html=1;labelBackgroundColor=none;fillColor=#1A7AA3;fontColor=#ffffff;align=center;arcSize=10;strokeColor=#736782;metaEdit=1;resizable=0;points=[[0.25,0,0],[0.5,0,0],[0.75,0,0],[1,0.25,0],[1,0.5,0],[1,0.75,0],[0.75,1,0],[0.5,1,0],[0.25,1,0],[0,0.75,0],[0,0.5,0],[0,0.25,0]];verticalAlign=middle;fontFamily=Helvetica;fontSize=12;" parent="1" vertex="1">
            <mxGeometry x="310" y="-1020" width="240" height="120" as="geometry" />
          </mxCell>
        </object>
      </root>
    </mxGraphModel>
  </diagram>
</mxfile>
